<svg width="18" height="13" viewBox="0 0 18 13" fill="none" xmlns="http://www.w3.org/2000/svg">
<path d="M8.99971 0.000386948C10.3807 0.000386948 11.7654 0.514355 12.8186 1.55154C13.6359 2.35638 14.1228 3.36346 14.3061 4.40748C16.3973 4.74188 18 6.51614 18 8.66681C18 11.0553 16.0253 13 13.6 13H3.8C1.70179 13 0 11.3241 0 9.2577C0 7.24603 1.61607 5.61915 3.6375 5.53368C3.57905 4.10042 4.07864 2.64339 5.18743 1.55116C6.23989 0.514672 7.61893 0 8.99993 0L8.99971 0.000386948ZM8.99971 0.78817C7.82143 0.78817 6.64982 1.22508 5.74971 2.11152C4.70939 3.13604 4.27511 4.52727 4.43721 5.8598C4.45158 5.9726 4.41587 6.08594 4.33928 6.17071C4.26269 6.25562 4.15261 6.30385 4.03724 6.30302H3.7998C2.13087 6.30302 0.7998 7.61388 0.7998 9.25747C0.7998 10.9011 2.13087 12.2119 3.7998 12.2119H13.5998C15.5927 12.2119 17.1998 10.6293 17.1998 8.66658C17.1998 6.81333 15.7661 5.29763 13.9311 5.13355H13.931C13.7426 5.11748 13.5914 4.97363 13.5686 4.78884C13.4532 3.80993 13.0197 2.86345 12.2561 2.11137C11.3565 1.22545 10.1781 0.788019 8.99977 0.788019L8.99971 0.78817ZM8.99971 4.72744C9.10672 4.72936 9.21135 4.77428 9.26841 4.82595L11.4685 6.79558C11.6328 6.93654 11.6408 7.20224 11.4997 7.35573C11.3585 7.50919 11.0862 7.51991 10.9309 7.38032L9.39969 6.00766V10.2424C9.39969 10.46 9.2207 10.6363 8.99973 10.6363C8.77875 10.6363 8.59976 10.4599 8.59976 10.2424V6.00766L7.06851 7.38032C6.91324 7.51991 6.6483 7.50233 6.49973 7.35573C6.34571 7.20377 6.37445 6.93395 6.53098 6.79558L8.73105 4.82595C8.81908 4.74667 8.89372 4.72716 8.99974 4.72744H8.99971Z" fill="black"/>
</svg>
